# xmcd
# 
# Track frame offsets:
#     150
#     22756
#     40680
#     58176
#     73403
#     90907
#     117578
#     137020
#     158388
#     185958
# 
# Disc length: 2733
# 
# Revision: 2
# Processed by: cddbd v1.5.2PL0 Copyright (c) Steve Scherf et al.
# Submitted via: fre:ac v1.0.27
# 
DISCID=830aab0a
DTITLE=Michael Bolton - Collections
DYEAR=0
DGENRE=Rock
TTITLE0=Said I Love You...But I Lied
TTITLE1=That's What Love Is All About
TTITLE2=When A Man Loves A Woman
TTITLE3=My Girl
TTITLE4=(Sittin' On) The Dock Of The Bay
TTITLE5=Once In A Lifetime
TTITLE6=Time, Love And Tenderness
TTITLE7=Whiter Shade Of Pale
TTITLE8=Drift Away
TTITLE9=How Am I Supposed To Live Without You
EXTD=
EXTT0=
EXTT1=
EXTT2=
EXTT3=
EXTT4=
EXTT5=
EXTT6=
EXTT7=
EXTT8=
EXTT9=
PLAYORDER=
